<mxfile host="app.diagrams.net" modified="2024-02-08T08:25:23.686Z" agent="Mozilla/5.0 (Windows NT 10.0; Win64; x64) AppleWebKit/537.36 (KHTML, like Gecko) Chrome/121.0.0.0 Safari/537.36" version="22.1.21" etag="VekfFL6yPH_LGPOPiqeL" type="github">
  <diagram name="Page-1" id="iM5Qar0I_T4ClO0l9BpY">
    <mxGraphModel>
      <root>
        <mxCell id="0" />
        <mxCell id="1" parent="0" />
      </root>
    </mxGraphModel>
  </diagram>
</mxfile>
